<svg xmlns="http://www.w3.org/2000/svg" viewBox="0 0 257.51 46.82"><defs><style>.cls-1{fill:#c12a21;}</style></defs><title>Recurso 10</title><g id="Capa_2" data-name="Capa 2"><g id="Capa_1-2" data-name="Capa 1"><path class="cls-1" d="M146.5,0c-2.36-.06-4.07.78-6.09,3.52L116.58,35.9,107.42,4.25c-1-3.2-3-4.26-5-4.25-2.9,0-4.37,1.23-5.9,4l-21,42.2H87.32l14.21-29.09,8.87,29.09h9.81l21.45-28.93-.11,28.93h10.07l-.07-40.54C151.55,1.68,149,.1,146.5,0"/><polygon class="cls-1" points="61.45 7.52 51.99 46.15 62.71 46.15 72.04 7.52 61.45 7.52"/><path class="cls-1" d="M23.29,25.08H15.71l2.83-11.65h8c4.25,0,6.46,2,6.05,5.65s-4.15,6-9.31,6m19.87-6.55c.58-5.12-2.4-11-13.09-11H9.34L0,46.15H10.62l3.5-14.51h5.46L29,46.15H40.58L30,30.77c9.37-2.33,12.56-7.12,13.14-12.24"/><path class="cls-1" d="M179.25,31.78l9.37-14.1,3.56,14.1Zm16.53,14.37H206l-9.69-35.58c-1.28-4.06-3.79-5.13-6.41-4.92-1.64.14-3.34.83-5.1,3.18L159.27,46.15H169.7l5.17-7.88,18.94,0Z"/><path class="cls-1" d="M238.31,39c-8.62-.12-13.53-5-12.83-11.17,1-8.36,8.57-13.45,19.24-13.36a46,46,0,0,1,10.9,1.19l1.89-7.74A59.5,59.5,0,0,0,246,6.64c-18.3,0-29.9,8.45-31.33,21-1.27,11.14,6.61,19.16,23.55,19.16a62.44,62.44,0,0,0,10.56-1l2-8.45A40.79,40.79,0,0,1,238.31,39"/></g></g></svg>